<?xml version="1.0" encoding="UTF-8"?>
<svg version="1.1" xmlns="http://www.w3.org/2000/svg" width="500" height="500">
<path d="M0 0 C1.08539063 -0.05800781 2.17078125 -0.11601562 3.2890625 -0.17578125 C11.06630343 -0.29938043 11.06630343 -0.29938043 14.16235352 2.1184082 C15.77563693 4.20326276 17.01585892 6.29659688 18.25 8.625 C18.68908691 9.35879883 19.12817383 10.09259766 19.58056641 10.84863281 C20.99764121 13.2286639 22.34536362 15.6394828 23.6875 18.0625 C28.17268886 26.03285933 32.77659757 33.91846154 37.5 41.75 C43.55761974 51.79848528 49.56250986 61.87621676 55.53222656 71.97705078 C58.99932974 77.83992043 62.48395509 83.69154602 65.99072266 89.53076172 C66.60854362 90.55996986 66.60854362 90.55996986 67.23884583 91.60997009 C68.24241507 93.28173607 69.24618632 94.95338078 70.25 96.625 C70.26030746 95.43705338 70.27061493 94.24910675 70.28123474 93.02516174 C70.37878933 81.85586589 70.4815059 70.68662798 70.58933926 59.51742649 C70.64461613 53.7745771 70.6980436 48.03172267 70.74731445 42.28881836 C70.7948879 36.7515548 70.84722789 31.21435533 70.90294075 25.67716789 C70.92339622 23.55957564 70.94210389 21.44196578 70.95907402 19.32434273 C70.98304763 16.36923961 71.01311143 13.41425886 71.04467773 10.45922852 C71.0504332 9.57450363 71.05618866 8.68977875 71.06211853 7.77824402 C71.13594784 1.73905216 71.13594784 1.73905216 72.25 0.625 C74.17667507 0.53751793 76.10651861 0.51802666 78.03515625 0.52734375 C79.20498047 0.53056641 80.37480469 0.53378906 81.58007812 0.53710938 C82.81177734 0.54548828 84.04347656 0.55386719 85.3125 0.5625 C87.16584961 0.56926758 87.16584961 0.56926758 89.05664062 0.57617188 C92.12114117 0.58800392 95.18554721 0.60448827 98.25 0.625 C100.39463232 4.1195562 100.49919064 6.89658588 100.49723816 10.95677185 C100.50143265 12.25923859 100.50562714 13.56170532 100.50994873 14.90364075 C100.50446541 16.34518507 100.49878244 17.78672865 100.49291992 19.22827148 C100.49399298 20.74782391 100.49593202 22.26737594 100.49867249 23.78692627 C100.50352056 27.912967 100.4958652 32.03889959 100.48571944 36.16492724 C100.47693597 40.48275807 100.47869646 44.80058553 100.4790802 49.11842346 C100.47814354 56.37071542 100.46946007 63.62296555 100.45581055 70.87524414 C100.44009095 79.2583323 100.43481225 87.64137463 100.4355461 96.02447647 C100.43622187 104.94953671 100.42927802 113.8745793 100.4200995 122.79963422 C100.41796896 125.37083774 100.41725842 127.9420384 100.41686058 130.51324272 C100.41585517 134.5556493 100.40974227 138.59801748 100.39969444 142.64041138 C100.39677644 144.12347745 100.39554266 145.60654794 100.39612198 147.08961678 C100.39661374 149.11516352 100.39033115 151.14070852 100.38371277 153.16624451 C100.38203692 154.29946357 100.38036108 155.43268263 100.37863445 156.60024166 C100.25892469 159.41514145 100.02377688 161.91605633 99.25 164.625 C95.62568203 166.43715899 91.42895462 165.93811698 87.4375 166 C86.53451172 166.03738281 85.63152344 166.07476562 84.70117188 166.11328125 C80.48212539 166.16908054 78.02778879 166.16041835 74.4921875 163.7265625 C71.44078951 159.50563915 68.77970624 155.13996206 66.1875 150.625 C65.61950684 149.65022705 65.05151367 148.6754541 64.46630859 147.67114258 C60.23181863 140.38624499 56.07061689 133.05924691 51.90966797 125.73217773 C46.75991966 116.69789931 41.38745459 107.80024681 36.01953125 98.89453125 C30.80337313 90.23600553 25.67348228 81.52660373 20.54589844 72.81542969 C19.1242136 70.41238592 17.68737368 68.01868562 16.25 65.625 C16.24191315 66.83356155 16.23382629 68.04212311 16.22549438 69.28730774 C16.14809936 80.66204853 16.06037697 92.03666872 15.96247292 103.41125202 C15.91247007 109.25941394 15.86614038 115.10755744 15.828125 120.95581055 C15.79132262 126.59687248 15.74497643 132.23778179 15.69193649 137.87871361 C15.67336568 140.03371702 15.65826772 142.18875317 15.64665604 144.34380531 C15.62983959 147.35607243 15.60081566 150.36798795 15.56884766 153.38012695 C15.56668747 154.27636276 15.56452728 155.17259857 15.56230164 156.09599304 C15.55113815 156.91628998 15.53997467 157.73658691 15.5284729 158.58174133 C15.52294214 159.29428731 15.51741138 160.00683329 15.51171303 160.74097157 C15.25 162.625 15.25 162.625 13.25 165.625 C10.75976562 166.01318359 10.75976562 166.01318359 7.65625 166.0234375 C6.54378906 166.02730469 5.43132812 166.03117188 4.28515625 166.03515625 C2.53525391 166.01775391 2.53525391 166.01775391 0.75 166 C-0.41660156 166.01160156 -1.58320313 166.02320313 -2.78515625 166.03515625 C-3.89761719 166.03128906 -5.01007813 166.02742187 -6.15625 166.0234375 C-7.18041016 166.02005371 -8.20457031 166.01666992 -9.25976562 166.01318359 C-10.08154297 165.88508301 -10.90332031 165.75698242 -11.75 165.625 C-14.14154003 162.03768995 -14.00123081 160.46588153 -14.00396729 156.20347595 C-14.00708727 155.54895543 -14.01020725 154.89443491 -14.01342177 154.22008044 C-14.0214109 152.02284989 -14.01507474 149.82589481 -14.00878906 147.62866211 C-14.0114985 146.05512836 -14.01505916 144.48159587 -14.01940918 142.9080658 C-14.02854038 138.63135451 -14.02498612 134.35473954 -14.01865101 130.07802653 C-14.01359569 125.60796898 -14.01828107 121.1379198 -14.02142334 116.66786194 C-14.02506397 109.16161617 -14.02026094 101.65540973 -14.01074219 94.14916992 C-13.99985349 85.4621217 -14.00338583 76.77516731 -14.014395 68.08812135 C-14.02346038 60.63755231 -14.02475695 53.18701158 -14.01951766 45.73643881 C-14.01639434 41.28298088 -14.01599859 36.82956711 -14.02259064 32.37611198 C-14.02835275 28.19088517 -14.02438815 24.00577982 -14.01280212 19.82056618 C-14.01014961 18.28141354 -14.01093066 16.74225075 -14.01532745 15.20310211 C-14.0207611 13.10844187 -14.01397589 11.0141753 -14.00396729 8.91954041 C-14.00321323 7.74538543 -14.00245918 6.57123045 -14.00168228 5.36149502 C-13.35082244 -1.71518392 -5.46634421 0.09601307 0 0 Z " fill="#FAFCFC" transform="translate(274.75,190.375)"/>
<path d="M0 0 C1.82879448 -0.01441132 1.82879448 -0.01441132 3.6945343 -0.02911377 C5.03487968 -0.03396645 6.37522725 -0.03824411 7.71557617 -0.04199219 C9.09405009 -0.04774923 10.47252401 -0.05350689 11.85099792 -0.05926514 C14.7504412 -0.06978553 17.64985672 -0.07561902 20.54931641 -0.07910156 C24.22951686 -0.08453909 27.9093384 -0.10845892 31.58942127 -0.13707352 C34.44397464 -0.15590085 37.29844123 -0.16091638 40.15305138 -0.16243744 C42.15845938 -0.16686605 44.16382057 -0.18542938 46.16914368 -0.20440674 C59.39674542 -0.17274689 71.82585549 1.63902425 81.96948242 10.75488281 C91.99980489 21.54893542 93.85905398 34.65872491 93.50854492 48.77441406 C92.97057806 59.25804333 87.85467325 68.13471804 80.82104492 75.72363281 C80.28479492 76.19800781 79.74854492 76.67238281 79.19604492 77.16113281 C80.33251908 80.57055527 80.88249531 80.83815997 83.75854492 82.72363281 C92.17538636 88.82432903 97.71035734 96.72215813 99.74682617 106.91894531 C101.99596488 123.15185948 99.19668662 137.76017943 90.00854492 151.41113281 C76.54646602 164.57405441 57.27721921 165.3131027 39.48120117 165.32910156 C38.1891124 165.33242996 36.89702362 165.33575836 35.56578064 165.33918762 C32.85032309 165.34513344 30.13489718 165.34703178 27.41943359 165.34643555 C23.93685057 165.34633311 20.45446769 165.360089 16.97193241 165.37720776 C13.64168519 165.39095865 10.31147646 165.39041437 6.98120117 165.39160156 C5.1032058 165.40237984 5.1032058 165.40237984 3.18727112 165.41337585 C2.03524704 165.41029922 0.88322296 165.4072226 -0.30371094 165.40405273 C-1.32025253 165.40547775 -2.33679413 165.40690277 -3.38414001 165.40837097 C-5.80395508 165.16113281 -5.80395508 165.16113281 -7.80395508 163.16113281 C-8.75548099 158.96970439 -8.92949421 154.93799939 -8.93093872 150.65132141 C-8.93375854 149.36004333 -8.93657837 148.06876526 -8.93948364 146.73835754 C-8.93753965 145.31979356 -8.9354915 143.90122971 -8.93334961 142.48266602 C-8.93470555 140.97927813 -8.93648657 139.47589058 -8.93865967 137.97250366 C-8.94320983 133.90046503 -8.94145469 129.8284518 -8.93828058 125.75641274 C-8.9357459 121.49371031 -8.93809748 117.23101002 -8.93966675 112.9683075 C-8.94148461 105.81374725 -8.93909156 98.65919734 -8.93432617 91.50463867 C-8.92887805 83.22939837 -8.93065174 74.95418269 -8.93615258 66.67894298 C-8.94068718 59.57309931 -8.94133274 52.46726307 -8.93871391 45.36141843 C-8.93715386 41.11757738 -8.93695009 36.87374791 -8.9402504 32.62990761 C-8.94313435 28.64329878 -8.94114374 24.6567218 -8.93535614 20.67011642 C-8.93403163 19.20555741 -8.93441744 17.74099572 -8.9366188 16.27643776 C-8.9393422 14.28095723 -8.93532507 12.28547085 -8.93093872 10.28999329 C-8.9305617 9.17227696 -8.93018467 8.05456064 -8.92979622 6.90297413 C-8.80395508 4.16113281 -8.80395508 4.16113281 -7.80395508 1.16113281 C-5.11325422 -0.18421762 -3.01293598 0.01912751 0 0 Z M10.19604492 34.16113281 C9.9175956 36.88047616 9.9175956 36.88047616 10.00073242 40.04394531 C10.00717773 41.21054688 10.01362305 42.37714844 10.02026367 43.57910156 C10.03702148 44.80242187 10.0537793 46.02574219 10.07104492 47.28613281 C10.08006836 48.5171875 10.0890918 49.74824219 10.09838867 51.01660156 C10.12201944 54.06497096 10.15496438 57.11295663 10.19604492 60.16113281 C15.64104492 59.66613281 15.64104492 59.66613281 21.19604492 59.16113281 C20.07534836 64.7646156 20.07534836 64.7646156 17.84057617 67.50097656 C17.15511719 68.38366211 17.15511719 68.38366211 16.45581055 69.28417969 C15.48828736 70.49717434 14.51162034 71.70292977 13.52612305 72.90136719 C11.93272662 74.88807092 11.93272662 74.88807092 10.19604492 78.16113281 C10.87188234 82.30831699 12.70194435 85.22656586 15.13354492 88.59863281 C17.7290536 92.34276513 19.56923457 95.91335023 21.19604492 100.16113281 C20.02235352 99.92716797 20.02235352 99.92716797 18.82495117 99.68847656 C17.81303711 99.49382812 16.80112305 99.29917969 15.75854492 99.09863281 C14.74920898 98.90140625 13.73987305 98.70417969 12.69995117 98.50097656 C11.87366211 98.38882813 11.04737305 98.27667969 10.19604492 98.16113281 C7.55904554 100.79813219 8.96116692 108.36502442 8.94604492 111.91113281 C8.92541992 113.10480469 8.90479492 114.29847656 8.88354492 115.52832031 C8.87838867 116.68074219 8.87323242 117.83316406 8.86791992 119.02050781 C8.85857422 120.0772168 8.84922852 121.13392578 8.83959961 122.22265625 C9.62439502 128.69238062 14.43416923 133.11267893 19.19604492 137.16113281 C32.58326942 146.65493815 44.13533234 148.35782036 60.30151367 145.89941406 C70.03030776 144.19864306 70.03030776 144.19864306 78.19604492 139.16113281 C79.32884341 125.11443161 73.77108278 110.22845742 64.90698242 99.35253906 C58.17038981 92.84635108 49.39524043 88.11651736 40.19604492 86.16113281 C40.45981647 82.92993133 41.22723459 82.13439197 43.74291992 79.97753906 C45.3284668 78.86185547 45.3284668 78.86185547 46.94604492 77.72363281 C60.92687161 67.82341687 67.65145471 54.80284966 71.05151367 38.19628906 C72.5298487 32.11700951 72.5298487 32.11700951 71.09448242 26.40332031 C68.60450612 24.77407656 66.15706918 23.93432503 63.32104492 23.03613281 C62.29237305 22.70355469 61.26370117 22.37097656 60.20385742 22.02832031 C42.17708734 16.83099179 23.63758154 20.71959619 10.19604492 34.16113281 Z " fill="#F8FBFB" transform="translate(85.803955078125,190.8388671875)"/>
<path d="M0 0 C1.21880859 -0.01224609 2.43761719 -0.02449219 3.69335938 -0.03710938 C5.43649414 -0.04000977 5.43649414 -0.04000977 7.21484375 -0.04296875 C8.28726318 -0.04707764 9.35968262 -0.05118652 10.46459961 -0.05541992 C13.0625 0.1875 13.0625 0.1875 15.0625 2.1875 C15.31697559 4.92399502 15.31697559 4.92399502 15.32319641 8.48204041 C15.32702196 9.13500094 15.33084751 9.78796147 15.33478898 10.46070868 C15.34514556 12.65870105 15.34112191 14.85643349 15.3371582 17.05444336 C15.34150323 18.62620792 15.34668567 20.19797035 15.35264587 21.76972961 C15.36606992 26.04655947 15.36661076 30.32330114 15.36408257 34.60014796 C15.36301514 38.16641886 15.3678904 41.73267175 15.372688 45.29893881 C15.38379502 53.71029249 15.38421392 62.12160151 15.37817383 70.53295898 C15.37213222 79.21942955 15.38444702 87.90573821 15.4057439 96.59218115 C15.42333917 104.04189875 15.42936453 111.49156473 15.42610615 118.94130236 C15.42428979 123.39427721 15.42696447 127.84713659 15.44082069 132.3000927 C15.45336075 136.48699174 15.45149144 140.67363778 15.43840981 144.86053276 C15.43603607 146.39926741 15.43880709 147.93801966 15.44703293 149.47673416 C15.4574355 151.57344503 15.44945334 153.66929671 15.4367218 155.76597595 C15.43688954 156.94050796 15.43705729 158.11503996 15.43723011 159.32516384 C15.0625 162.1875 15.0625 162.1875 13.69610882 164.0655756 C11.31434131 165.70131792 9.45664599 165.55952799 6.58984375 165.55078125 C5.52572266 165.55013672 4.46160156 165.54949219 3.36523438 165.54882812 C2.25470703 165.53271484 1.14417969 165.51660156 0 165.5 C-1.6715918 165.50483398 -1.6715918 165.50483398 -3.37695312 165.50976562 C-11.67055861 165.45444139 -11.67055861 165.45444139 -13.9375 163.1875 C-14.18638897 160.41418362 -14.18638897 160.41418362 -14.18473816 156.80357361 C-14.18715257 156.14103484 -14.18956699 155.47849608 -14.19205457 154.79588038 C-14.19771116 152.56556292 -14.18901392 150.3355294 -14.18041992 148.10522461 C-14.18149231 146.51051251 -14.18343035 144.9158008 -14.18617249 143.3210907 C-14.1910305 138.9823991 -14.18335356 134.64380993 -14.17321944 130.30513072 C-14.16445583 125.77321022 -14.16619605 121.24129309 -14.1665802 116.70936584 C-14.16564288 109.09878823 -14.15694921 101.48825043 -14.14331055 93.87768555 C-14.12757867 85.06625998 -14.1223126 76.25487802 -14.1230461 67.44343942 C-14.12365548 58.9816152 -14.11855863 50.51980525 -14.11025429 42.05798531 C-14.10671473 38.44993542 -14.10489008 34.84189058 -14.10436058 31.23383904 C-14.10335938 26.98956125 -14.09728113 22.74532038 -14.08719444 18.50105476 C-14.08426243 16.93890738 -14.08304548 15.37675574 -14.08362198 13.81460571 C-14.08410926 11.69117823 -14.07849093 9.56785568 -14.07121277 7.44444275 C-14.06953692 6.25331847 -14.06786108 5.06219419 -14.06613445 3.83497524 C-13.75927534 -2.48061044 -4.86208534 0.00256304 0 0 Z " fill="#F9FCFC" transform="translate(219.9375,190.8125)"/>
<path d="M0 0 C8.58 0 17.16 0 26 0 C27.41194101 2.82388201 27.12923651 5.17984555 27.13371277 8.3392334 C27.13597833 8.99698305 27.13824388 9.65473269 27.14057809 10.33241415 C27.14693138 12.54649685 27.14608789 14.76051854 27.14526367 16.97460938 C27.1482543 18.55784688 27.1516566 20.14108365 27.15544128 21.72431946 C27.16429434 26.03205306 27.16661992 30.33976681 27.16725707 34.64750862 C27.16820498 38.23872193 27.17188183 41.82993058 27.17542917 45.4211421 C27.18357834 53.88997603 27.18601294 62.35879932 27.18530273 70.82763672 C27.18470149 79.57657382 27.19526145 88.32544935 27.2110464 97.07437086 C27.22410062 104.57586951 27.22948754 112.07734797 27.22884732 119.5788579 C27.22859175 124.0636362 27.2314754 128.5483598 27.24202538 133.03312683 C27.25167107 137.2486988 27.25180997 141.46416335 27.24450874 145.679739 C27.24345855 147.23018233 27.24585133 148.78063222 27.2518692 150.33106422 C27.2595311 152.4410934 27.25498346 154.55074615 27.24723816 156.6607666 C27.24778293 157.84359474 27.24832769 159.02642288 27.24888897 160.2450943 C27 163 27 163 25 165 C22.47802734 165.22705078 22.47802734 165.22705078 19.3359375 165.1953125 C18.21445312 165.18886719 17.09296875 165.18242187 15.9375 165.17578125 C14.761875 165.15902344 13.58625 165.14226562 12.375 165.125 C11.19164062 165.11597656 10.00828125 165.10695313 8.7890625 165.09765625 C5.85917477 165.07402812 2.9296866 165.04108514 0 165 C-2.15201506 161.49710402 -2.25127538 158.70074343 -2.25396729 154.63026428 C-2.25960693 153.31938339 -2.26524658 152.0085025 -2.27105713 150.65789795 C-2.26716858 149.20690863 -2.26307224 147.75591985 -2.25878906 146.30493164 C-2.26149939 144.77552626 -2.26506056 143.24612218 -2.26940918 141.71672058 C-2.27853123 137.56382909 -2.27498948 133.41103691 -2.26865101 129.25814366 C-2.26358916 124.91228164 -2.26828306 120.56642815 -2.27142334 116.2205658 C-2.27506283 108.92119825 -2.27026474 101.62187117 -2.26074219 94.32250977 C-2.24986174 85.88486774 -2.2533803 77.44732239 -2.264395 69.00968271 C-2.27347322 61.76541411 -2.27475041 54.5211746 -2.26951766 47.27690214 C-2.26640038 42.95023638 -2.2659819 38.62361604 -2.27259064 34.2969532 C-2.27837109 30.22825284 -2.27435438 26.15967699 -2.26280212 22.09099007 C-2.26015911 20.59824836 -2.26091452 19.10549616 -2.26532745 17.61275864 C-2.2707983 15.5740827 -2.26271917 13.53538385 -2.25396729 11.49671936 C-2.25321323 10.35612596 -2.25245918 9.21553255 -2.25168228 8.04037571 C-2 5 -2 5 0 0 Z " fill="#F9FCFB" transform="translate(403,191)"/>
<path d="M0 0 C6.21490568 4.31238354 8.12186628 10.55370034 9.58984375 17.65625 C9.79287109 18.81640625 9.79287109 18.81640625 10 20 C10.7425 19.67 11.485 19.34 12.25 19 C17.89019397 17.49594828 24.58524353 16.54556669 30.109375 18.8984375 C31.75 20 31.75 20 34 22 C33.58124977 27.58333642 31.63367954 31.803859 28 36 C23.7543074 39.07062212 20.23947791 40.21831158 15 40 C15.34933594 40.67546875 15.69867188 41.3509375 16.05859375 42.046875 C16.51363281 42.93890625 16.96867187 43.8309375 17.4375 44.75 C17.88996094 45.63171875 18.34242188 46.5134375 18.80859375 47.421875 C21.42703825 53.0880172 21.75910342 58.39058201 20 64.4375 C19.67 65.283125 19.34 66.12875 19 67 C12.7098291 67.44929792 8.16934646 66.80261094 3 63 C-2 57.56416465 -2 57.56416465 -2 54 C-2.721875 54.7425 -3.44375 55.485 -4.1875 56.25 C-5.115625 57.1575 -6.04375 58.065 -7 59 C-8.0828125 60.11375 -8.0828125 60.11375 -9.1875 61.25 C-13.23014545 63.76542384 -17.28598984 64.03994924 -22 64 C-25 63 -25 63 -26.1875 61.0625 C-27.76641634 55.11119996 -28.13315054 49.34134774 -25 43.875 C-24.34 42.92625 -23.68 41.9775 -23 41 C-23.680625 40.79375 -24.36125 40.5875 -25.0625 40.375 C-30.64401139 37.76237765 -34.74103238 34.49612672 -36.9375 28.625 C-37.288125 27.42875 -37.63875 26.2325 -38 25 C-32.67389058 20.49329203 -27.46708566 19.74590404 -20.625 19.875 C-19.37976563 19.89304688 -18.13453125 19.91109375 -16.8515625 19.9296875 C-15.91054688 19.95289063 -14.96953125 19.97609375 -14 20 C-14.02578125 18.91976562 -14.0515625 17.83953125 -14.078125 16.7265625 C-13.94381886 10.32015966 -11.25669225 5.66863021 -7 1 C-4.43548502 -0.28225749 -2.84631873 -0.29061513 0 0 Z " fill="#F7F9F5" transform="translate(419,109)"/>
<path d="M0 0 C6.21490568 4.31238354 8.12186628 10.55370034 9.58984375 17.65625 C9.72519531 18.4296875 9.86054688 19.203125 10 20 C10.7425 19.67 11.485 19.34 12.25 19 C17.89019397 17.49594828 24.58524353 16.54556669 30.109375 18.8984375 C31.75 20 31.75 20 34 22 C33.67 23.98 33.34 25.96 33 28 C32.8453125 27.1028125 32.8453125 27.1028125 32.6875 26.1875 C31.89363064 23.66155205 31.04427591 22.65114593 29 21 C26.15785932 20.05261977 24.32391609 19.86539441 21.375 19.875 C20.57835937 19.87242187 19.78171875 19.86984375 18.9609375 19.8671875 C16.99646464 19.78429926 16.99646464 19.78429926 16 21 C14.33382885 21.04063832 12.66611905 21.042721 11 21 C11 23.31 11 25.62 11 28 C11.66 28.33 12.32 28.66 13 29 C12.125 33.875 12.125 33.875 11 35 C9.35 35 7.7 35 6 35 C6 38.63 6 42.26 6 46 C3.4609375 45.67447917 0.921875 45.34895833 -1.6171875 45.0234375 C-2.40351563 45.01570313 -3.18984375 45.00796875 -4 45 C-4.66 45.66 -5.32 46.32 -6 47 C-9.125 47.125 -9.125 47.125 -12 47 C-14.21538462 40.72307692 -14.21538462 40.72307692 -13.125 37.0625 C-12.75375 36.381875 -12.3825 35.70125 -12 35 C-13.65 35 -15.3 35 -17 35 C-17 33.68 -17 32.36 -17 31 C-17.66 31 -18.32 31 -19 31 C-18.67 29.68 -18.34 28.36 -18 27 C-17.01 27 -16.02 27 -15 27 C-15 26.01 -15 25.02 -15 24 C-15.99 24.66 -16.98 25.32 -18 26 C-18.33 24.35 -18.66 22.7 -19 21 C-17.02 20.67 -15.04 20.34 -13 20 C-12.84850702 16.37114676 -12.84850702 16.37114676 -14 13 C-11.4782452 5.96563133 -8.46484918 -0.8642789 0 0 Z " fill="#F9F8EE" transform="translate(419,109)"/>
<path d="M0 0 C2.37859197 1.73820183 2.94932885 2.80192188 3.6875 5.6875 C3.790625 6.450625 3.89375 7.21375 4 8 C6.64 8 9.28 8 12 8 C13 11 13 11 12.0625 13.1875 C11.5365625 14.0846875 11.5365625 14.0846875 11 15 C10.01 15 9.02 15 8 15 C8 18.63 8 22.26 8 26 C5.4609375 25.67447917 2.921875 25.34895833 0.3828125 25.0234375 C-0.40351563 25.01570313 -1.18984375 25.00796875 -2 25 C-2.66 25.66 -3.32 26.32 -4 27 C-7.125 27.125 -7.125 27.125 -10 27 C-12.21538462 20.72307692 -12.21538462 20.72307692 -11.125 17.0625 C-10.568125 16.0415625 -10.568125 16.0415625 -10 15 C-11.65 15 -13.3 15 -15 15 C-15 13.68 -15 12.36 -15 11 C-15.66 11 -16.32 11 -17 11 C-16.67 9.68 -16.34 8.36 -16 7 C-15.01 7 -14.02 7 -13 7 C-12.34 6.34 -11.68 5.68 -11 5 C-8.375 5.375 -8.375 5.375 -6 6 C-5.87625 5.195625 -5.7525 4.39125 -5.625 3.5625 C-5.41875 2.716875 -5.2125 1.87125 -5 1 C-3 0 -3 0 0 0 Z " fill="#FBFAE5" transform="translate(417,129)"/>
<path d="M0 0 C1.084021 0.00523682 2.16804199 0.01047363 3.28491211 0.01586914 C5.03964844 0.02070313 5.03964844 0.02070313 6.82983398 0.02563477 C8.0615332 0.03401367 9.29323242 0.04239258 10.56225586 0.05102539 C12.41560547 0.05779297 12.41560547 0.05779297 14.30639648 0.06469727 C17.37089703 0.07652931 20.43530307 0.09301366 23.49975586 0.11352539 C23.49975586 0.44352539 23.49975586 0.77352539 23.49975586 1.11352539 C15.24975586 1.11352539 6.99975586 1.11352539 -1.50024414 1.11352539 C-1.50024414 34.11352539 -1.50024414 67.11352539 -1.50024414 101.11352539 C-5.50024414 100.11352539 -5.50024414 100.11352539 -6.80102539 98.33618164 C-7.13489258 97.62333008 -7.46875977 96.91047852 -7.81274414 96.17602539 C-8.15950195 95.46575195 -8.50625977 94.75547852 -8.86352539 94.02368164 C-9.07364258 93.39333008 -9.28375977 92.76297852 -9.50024414 92.11352539 C-9.00524414 91.12352539 -9.00524414 91.12352539 -8.50024414 90.11352539 C-7.18024414 92.09352539 -5.86024414 94.07352539 -4.50024414 96.11352539 C-4.48993668 94.92557877 -4.47962921 93.73763214 -4.4690094 92.51368713 C-4.37145481 81.34439128 -4.26873824 70.17515337 -4.16090488 59.00595188 C-4.10562801 53.26310249 -4.05220054 47.52024806 -4.00292969 41.77734375 C-3.95535624 36.24008019 -3.90301625 30.70288072 -3.84730339 25.16569328 C-3.82684792 23.04810103 -3.80814025 20.93049117 -3.79117012 18.81286812 C-3.76719651 15.857765 -3.73713271 12.90278425 -3.70556641 9.94775391 C-3.69981094 9.06302902 -3.69405548 8.17830414 -3.68812561 7.26676941 C-3.60128815 0.16351909 -3.60128815 0.16351909 0 0 Z " fill="#E8F0EE" transform="translate(349.500244140625,190.886474609375)"/>
<path d="M0 0 C1.5 1.1875 1.5 1.1875 3 3 C3.1875 5.6875 3.1875 5.6875 3 8 C5.97 8 8.94 8 12 8 C12 8.66 12 9.32 12 10 C11.175 10.350625 10.35 10.70125 9.5 11.0625 C6.78634201 12.70545868 6.78634201 12.70545868 6.66796875 15.1953125 C6.68588203 17.48104671 6.7853505 19.7247153 7 22 C5.9171875 21.4740625 5.9171875 21.4740625 4.8125 20.9375 C1.61723066 19.87241022 0.19318629 20.09935771 -3 21 C-4.32 21.33 -5.64 21.66 -7 22 C-6.505 17.545 -6.505 17.545 -6 13 C-7.32 12.34 -8.64 11.68 -10 11 C-10.66 10.67 -11.32 10.34 -12 10 C-12 9.34 -12 8.68 -12 8 C-9.03 8 -6.06 8 -3 8 C-2.87625 7.05125 -2.7525 6.1025 -2.625 5.125 C-2 2 -2 2 0 0 Z " fill="#F3D61E" transform="translate(416,131)"/>
<path d="M0 0 C0.33 0 0.66 0 1 0 C1 32.67 1 65.34 1 99 C0.01 99 -0.98 99 -2 99 C-2.69710731 97.71349294 -3.38242876 96.42059335 -4.0625 95.125 C-4.44535156 94.40570313 -4.82820313 93.68640625 -5.22265625 92.9453125 C-5.47917969 92.30335938 -5.73570312 91.66140625 -6 91 C-5.505 90.01 -5.505 90.01 -5 89 C-3.68 90.98 -2.36 92.96 -1 95 C-0.67 63.65 -0.34 32.3 0 0 Z " fill="#DAE1E2" transform="translate(346,192)"/>
<path d="M0 0 C0.99 0.495 0.99 0.495 2 1 C2 4.3 2 7.6 2 11 C3.051875 10.649375 4.10375 10.29875 5.1875 9.9375 C8.7954681 9.05029473 10.52632489 8.94737118 14 10 C13.65986985 15.44208234 10.29703472 18.93668198 7 23 C5 20 5 20 5.2421875 17.95703125 C5.828125 15.97135417 6.4140625 13.98567708 7 12 C4.69 12.33 2.38 12.66 0 13 C0 8.71 0 4.42 0 0 Z " fill="#EAF5F4" transform="translate(94,240)"/>
<path d="M0 0 C0.99 0.33 1.98 0.66 3 1 C3.33 2.65 3.66 4.3 4 6 C6.64 6 9.28 6 12 6 C13 9 13 9 12.0625 11.1875 C11.711875 11.785625 11.36125 12.38375 11 13 C10.01 13 9.02 13 8 13 C8 16.63 8 20.26 8 24 C5.69 23.67 3.38 23.34 1 23 C1 22.34 1 21.68 1 21 C-0.65 21 -2.3 21 -4 21 C-3.67 20.34 -3.34 19.68 -3 19 C0.73487777 19.4979837 2.81237635 19.87491756 6 22 C5.88140625 21.38511719 5.7628125 20.77023438 5.640625 20.13671875 C5.25455705 17.71607269 4.96086528 15.45244241 5 13 C6.8125 10.9375 6.8125 10.9375 9 10 C9.66 10 10.32 10 11 10 C11 9.34 11 8.68 11 8 C8.03 8 5.06 8 2 8 C1.34 5.36 0.68 2.72 0 0 Z " fill="#F9F6B2" transform="translate(417,131)"/>
<path d="M0 0 C3.80267636 3.38015677 6.81105028 7.40679404 9 12 C9 13.32 9 14.64 9 16 C5.37 15.67 1.74 15.34 -2 15 C-2.66 16.32 -3.32 17.64 -4 19 C-4 17.02 -4 15.04 -4 13 C-2.02 13 -0.04 13 2 13 C1.39174965 8.65535464 0.73832608 4.32448133 0 0 Z " fill="#E6EEEE" transform="translate(98,275)"/>
<path d="M0 0 C1.5 1.1875 1.5 1.1875 3 3 C3.1875 5.6875 3.1875 5.6875 3 8 C5.97 8 8.94 8 12 8 C12 8.66 12 9.32 12 10 C11.175 10.350625 10.35 10.70125 9.5 11.0625 C6.78634201 12.70545868 6.78634201 12.70545868 6.66796875 15.1953125 C6.68588203 17.48104671 6.7853505 19.7247153 7 22 C4.525 21.01 4.525 21.01 2 20 C2.99 19.67 3.98 19.34 5 19 C5 16.03 5 13.06 5 10 C4.01 9.67 3.02 9.34 2 9 C2 8.01 2 7.02 2 6 C0.35 6.33 -1.3 6.66 -3 7 C-1.125 1.125 -1.125 1.125 0 0 Z " fill="#E5D652" transform="translate(416,131)"/>
<path d="M0 0 C0.99 0.33 1.98 0.66 3 1 C2.83923477 1.54650208 2.67846954 2.09300415 2.51283264 2.65606689 C1.92945075 5.32244968 1.83850442 7.77315297 1.79467773 10.50292969 C1.77473251 11.60376892 1.75478729 12.70460815 1.73423767 13.83880615 C1.71752518 15.02121887 1.70081268 16.20363159 1.68359375 17.421875 C1.66281265 18.63699768 1.64203156 19.85212036 1.62062073 21.10406494 C1.55523172 24.98598573 1.49628949 28.8679742 1.4375 32.75 C1.39430468 35.38151742 1.35069006 38.01302799 1.30664062 40.64453125 C1.19956117 47.0962826 1.09777486 53.54810129 1 60 C0.67 60 0.34 60 0 60 C0 40.2 0 20.4 0 0 Z " fill="#DAEAEA" transform="translate(261,194)"/>
<path d="M0 0 C7 8.44827586 7 8.44827586 7 12 C4.1875 11.875 4.1875 11.875 1 11 C-1.43349748 7.34975379 -2 5.42295798 -2 1 C-1.34 0.67 -0.68 0.34 0 0 Z " fill="#ECF7F6" transform="translate(322,250)"/>
<path d="M0 0 C1.984375 1.57421875 1.984375 1.57421875 3.75 3.6875 C4.34296875 4.37199219 4.9359375 5.05648437 5.546875 5.76171875 C7.13542178 8.20859323 7.61788774 10.12913029 8 13 C7.34 13 6.68 13 6 13 C5.91363281 12.40832031 5.82726562 11.81664063 5.73828125 11.20703125 C4.79449315 8.38565412 3.55263277 7.45586457 1.1875 5.6875 C0.15689453 4.88892578 0.15689453 4.88892578 -0.89453125 4.07421875 C-2.92888375 2.78756897 -2.92888375 2.78756897 -5.13671875 3.26953125 C-7.04862413 3.98685119 -7.04862413 3.98685119 -9 5 C-6.910734 0.37376815 -5.1329535 -0.57630466 0 0 Z " fill="#E1DACA" transform="translate(419,109)"/>
<path d="M0 0 C2.64 0 5.28 0 8 0 C7.835 0.53625 7.67 1.0725 7.5 1.625 C6.90339788 4.45886009 6.9343632 7.1119806 7 10 C9.31 10 11.62 10 14 10 C11.06279492 11.52299523 8.0831351 12.80100302 5 14 C5.33 11.03 5.66 8.06 6 5 C4.68 4.34 3.36 3.68 2 3 C1.34 2.67 0.68 2.34 0 2 C0 1.34 0 0.68 0 0 Z " fill="#E7D95F" transform="translate(404,139)"/>
<path d="M0 0 C1.5625 1.25 1.5625 1.25 3 3 C2.90780922 5.85791408 1.98538768 7.01813944 0.1875 9.25 C-2 11 -2 11 -6 11 C-4.54955729 6.89041233 -2.48889248 3.56741255 0 0 Z " fill="#EFF8F6" transform="translate(149,250)"/>
<path d="M0 0 C-1.5625 2.0625 -1.5625 2.0625 -4 4 C-6.875 3.75 -6.875 3.75 -8.66015625 3.35546875 C-13.0650142 2.68628332 -17.54575617 3.04212955 -21.98828125 3.16015625 C-25 3 -25 3 -27 1 C-26.00033203 1.01740234 -26.00033203 1.01740234 -24.98046875 1.03515625 C-19.09880977 1.09273893 -13.35640324 0.84725527 -7.5078125 0.21875 C-4.99146883 -0.00074415 -2.52448953 -0.0361934 0 0 Z " fill="#E1F1F0" transform="translate(150,336)"/>
<path d="M0 0 C0.99 0.495 0.99 0.495 2 1 C2 4.3 2 7.6 2 11 C5.465 10.505 5.465 10.505 9 10 C5.59353476 13.0279691 4.9819505 13 0 13 C0 8.71 0 4.42 0 0 Z " fill="#D0DAD8" transform="translate(94,240)"/>
<path d="M0 0 C0.33 0 0.66 0 1 0 C1 2.97 1 5.94 1 9 C2.65 9 4.3 9 6 9 C6 8.34 6 7.68 6 7 C7.65 7 9.3 7 11 7 C8.12835434 9.70272533 6.69008159 10.94791837 2.6875 11.25 C1.800625 11.1675 0.91375 11.085 0 11 C-2.21538462 4.6 -2.21538462 4.6 -1.125 1.5625 C-0.75375 1.046875 -0.3825 0.53125 0 0 Z " fill="#FCFCDD" transform="translate(407,145)"/>
<path d="M0 0 C0.33 0 0.66 0 1 0 C1 5.94 1 11.88 1 18 C0.01 18 -0.98 18 -2 18 C-2.69710731 16.71349294 -3.38242876 15.42059335 -4.0625 14.125 C-4.44535156 13.40570313 -4.82820313 12.68640625 -5.22265625 11.9453125 C-5.60744141 10.98238281 -5.60744141 10.98238281 -6 10 C-5.67 9.34 -5.34 8.68 -5 8 C-3.02 10.97 -3.02 10.97 -1 14 C-0.67 9.38 -0.34 4.76 0 0 Z " fill="#CED7D7" transform="translate(346,273)"/>
<path d="M0 0 C2.63978826 3.18595135 5.10498388 6.30970546 7 10 C6.67 10.66 6.34 11.32 6 12 C4 12 4 12 1.875 9.9375 C-0.40650982 6.36313462 -0.32644414 4.16216275 0 0 Z " fill="#F1F8F8" transform="translate(297,208)"/>
<path d="M0 0 C3.34726719 1.11575573 3.62079748 1.51344622 5.25 4.4375 C5.8275 5.613125 6.405 6.78875 7 8 C6.67 8.66 6.34 9.32 6 10 C4.68 9.34 3.36 8.68 2 8 C2 7.34 2 6.68 2 6 C1.01 5.67 0.02 5.34 -1 5 C-0.67 3.35 -0.34 1.7 0 0 Z " fill="#EAF7F6" transform="translate(329,264)"/>
<path d="M0 0 C2 1 4 2 6 3 C5.67 5.97 5.34 8.94 5 12 C6.32 11.67 7.64 11.34 9 11 C9 11.66 9 12.32 9 13 C7.35 13 5.7 13 4 13 C3.67 10.03 3.34 7.06 3 4 C2.01 3.67 1.02 3.34 0 3 C0 2.01 0 1.02 0 0 Z " fill="#F9F5AF" transform="translate(404,141)"/>
<path d="M0 0 C2.64 0 5.28 0 8 0 C8 0.66 8 1.32 8 2 C9.98 2 11.96 2 14 2 C14 2.33 14 2.66 14 3 C9.05 3 4.1 3 -1 3 C-0.67 2.01 -0.34 1.02 0 0 Z " fill="#E7F3F0" transform="translate(123,208)"/>
<path d="M0 0 C0.66 0.33 1.32 0.66 2 1 C1.525625 1.763125 1.05125 2.52625 0.5625 3.3125 C-1.10106097 5.96410548 -1.10106097 5.96410548 -2 9 C-4.31 9 -6.62 9 -9 9 C-9 8.34 -9 7.68 -9 7 C-8.21625 6.938125 -7.4325 6.87625 -6.625 6.8125 C-5.75875 6.544375 -4.8925 6.27625 -4 6 C-2.76709799 3.54295238 -2.76709799 3.54295238 -2 1 C-1.34 0.67 -0.68 0.34 0 0 Z " fill="#FBF6B2" transform="translate(415,130)"/>
<path d="M0 0 C0.66 0.33 1.32 0.66 2 1 C1.01 2.485 1.01 2.485 0 4 C0 4.99 0 5.98 0 7 C-0.5775 6.773125 -1.155 6.54625 -1.75 6.3125 C-4.12172477 5.73494807 -4.12172477 5.73494807 -6.25 7.4375 C-6.8275 7.953125 -7.405 8.46875 -8 9 C-8.66 8.67 -9.32 8.34 -10 8 C-6.7 5.36 -3.4 2.72 0 0 Z " fill="#E0E9E8" transform="translate(140,262)"/>
<path d="M0 0 C5.70709064 0.46588495 9.15939723 1.93757784 14 5 C12 6 12 6 9.25 5.1875 C8.1775 4.795625 7.105 4.40375 6 4 C4.88625 3.62875 3.7725 3.2575 2.625 2.875 C1.75875 2.58625 0.8925 2.2975 0 2 C0 1.34 0 0.68 0 0 Z " fill="#E2EAE9" transform="translate(149,193)"/>
<path d="M0 0 C1.65 0 3.3 0 5 0 C6.26422764 3.79268293 5.23577236 5.29268293 4 9 C0 2.25 0 2.25 0 0 Z " fill="#EAF0F0" transform="translate(306,279)"/>
<path d="M0 0 C1.5625 1.25 1.5625 1.25 3 3 C2.6875 5.1875 2.6875 5.1875 2 7 C0.35 7 -1.3 7 -3 7 C-1.125 1.125 -1.125 1.125 0 0 Z " fill="#E6DD6D" transform="translate(416,131)"/>
<path d="M0 0 C2.375 0.25 2.375 0.25 5 1 C6.3125 3.0625 6.3125 3.0625 7 5 C6.01 5.99 5.02 6.98 4 8 C2.68 5.36 1.36 2.72 0 0 Z " fill="#E4F1F1" transform="translate(326,314)"/>
<path d="M0 0 C3.78155989 1.26051996 4.25618367 2.56446606 6.25 5.9375 C6.79140625 6.83339844 7.3328125 7.72929687 7.890625 8.65234375 C8.25671875 9.42707031 8.6228125 10.20179688 9 11 C8.67 11.66 8.34 12.32 8 13 C5.27324841 10.59310197 3.88033404 8.07528977 2.3125 4.8125 C1.65701172 3.46091797 1.65701172 3.46091797 0.98828125 2.08203125 C0.66214844 1.39496094 0.33601563 0.70789063 0 0 Z " fill="#E4EFF0" transform="translate(313,237)"/>
<path d="M0 0 C0.66 0.66 1.32 1.32 2 2 C-0.31 3.32 -2.62 4.64 -5 6 C-5.33 4.35 -5.66 2.7 -6 1 C-3.125 0.375 -3.125 0.375 0 0 Z " fill="#FAF7E8" transform="translate(406,129)"/>
<path d="M0 0 C0.99 0.33 1.98 0.66 3 1 C2.34 6.28 1.68 11.56 1 17 C0.67 17 0.34 17 0 17 C0 11.39 0 5.78 0 0 Z " fill="#E7ECEF" transform="translate(261,194)"/>
<path d="M0 0 C0.99 0.33 1.98 0.66 3 1 C3.33 2.65 3.66 4.3 4 6 C6.97 6.495 6.97 6.495 10 7 C10 7.33 10 7.66 10 8 C7.36 8 4.72 8 2 8 C1.34 5.36 0.68 2.72 0 0 Z " fill="#FDF8A9" transform="translate(417,131)"/>
<path d="M0 0 C-1.32 1.32 -2.64 2.64 -4 4 C-4.66 3.67 -5.32 3.34 -6 3 C-7.53668865 2.77532169 -9.07968054 2.59203195 -10.625 2.4375 C-11.44226563 2.35371094 -12.25953125 2.26992188 -13.1015625 2.18359375 C-13.72804687 2.12300781 -14.35453125 2.06242187 -15 2 C-15 1.67 -15 1.34 -15 1 C-13.43784452 0.83013455 -11.8752548 0.66426036 -10.3125 0.5 C-9.44238281 0.4071875 -8.57226562 0.314375 -7.67578125 0.21875 C-5.10276661 0.00840136 -2.58015636 -0.03719144 0 0 Z " fill="#DAECE8" transform="translate(150,336)"/>
<path d="M0 0 C0.99 0.33 1.98 0.66 3 1 C1.25 5.875 1.25 5.875 -1 7 C-1.66 6.34 -2.32 5.68 -3 5 C-2.01 3.35 -1.02 1.7 0 0 Z " fill="#F0F7F6" transform="translate(171,254)"/>
<path d="M0 0 C3.08089673 2.77280706 4.68775452 5.06326356 6 9 C4.35 8.67 2.7 8.34 1 8 C0.67 5.36 0.34 2.72 0 0 Z " fill="#E2EAEA" transform="translate(98,275)"/>
<path d="M0 0 C1.65 1.32 3.3 2.64 5 4 C1.625 4.625 1.625 4.625 -2 5 C-2.66 4.34 -3.32 3.68 -4 3 C-2.68 2.01 -1.36 1.02 0 0 Z " fill="#F1F4F5" transform="translate(116,208)"/>
<path d="M0 0 C1.98 0.66 3.96 1.32 6 2 C6 2.66 6 3.32 6 4 C5.34 4 4.68 4 4 4 C3.71125 4.639375 3.4225 5.27875 3.125 5.9375 C2 8 2 8 0 9 C1.875 4.25 1.875 4.25 3 2 C2.01 1.67 1.02 1.34 0 1 C0 0.67 0 0.34 0 0 Z " fill="#D5D8D1" transform="translate(393,148)"/>
<path d="M0 0 C1.98 0 3.96 0 6 0 C7 3 7 3 6.0625 5.1875 C5.5365625 6.0846875 5.5365625 6.0846875 5 7 C4.01 7 3.02 7 2 7 C2.33 6.01 2.66 5.02 3 4 C3.66 4 4.32 4 5 4 C3.74458443 1.48916886 2.49936512 1.12874554 0 0 Z " fill="#F8F7C5" transform="translate(423,137)"/>
<path d="M0 0 C1.9375 0.3125 1.9375 0.3125 4 1 C4.33 1.99 4.66 2.98 5 4 C3.5625 6.1875 3.5625 6.1875 2 8 C0.74335022 5.09399739 0 3.20395416 0 0 Z " fill="#E7EDEC" transform="translate(159,304)"/>
<path d="M0 0 C0.97591583 3.38317487 0.85856655 5.5657338 0 9 C-0.66 9 -1.32 9 -2 9 C-2.33 10.32 -2.66 11.64 -3 13 C-4 11 -4 11 -3.22265625 8.3984375 C-2.83980469 7.40070313 -2.45695313 6.40296875 -2.0625 5.375 C-1.68222656 4.37210938 -1.30195313 3.36921875 -0.91015625 2.3359375 C-0.60980469 1.56507813 -0.30945313 0.79421875 0 0 Z " fill="#E0E9E6" transform="translate(154,237)"/>
<path d="M0 0 C0.66 1.32 1.32 2.64 2 4 C0.35 5.32 -1.3 6.64 -3 8 C-3 4.42424104 -1.91159393 2.94704065 0 0 Z " fill="#E4EDEB" transform="translate(149,250)"/>
<path d="M0 0 C0.33 0 0.66 0 1 0 C1.33 2.97 1.66 5.94 2 9 C-0.475 8.01 -0.475 8.01 -3 7 C-2.01 6.67 -1.02 6.34 0 6 C0 4.02 0 2.04 0 0 Z " fill="#E4D963" transform="translate(421,144)"/>
</svg>
